<?xml version="1.0" encoding="UTF-8"?>
<svg version="1.1" xmlns="http://www.w3.org/2000/svg" width="225" height="225">
<path d="M0 0 C74.25 0 148.5 0 225 0 C225 74.25 225 148.5 225 225 C150.75 225 76.5 225 0 225 C0 150.75 0 76.5 0 0 Z " fill="#FEFEFE" transform="translate(0,0)"/>
<path d="M0 0 C10.01449702 -0.04529397 20.02892533 -0.08194095 30.04350185 -0.10362434 C34.69432334 -0.11403445 39.34507075 -0.12814272 43.99584961 -0.15087891 C48.48920985 -0.17270653 52.98249909 -0.18458946 57.47590828 -0.18975449 C59.18499938 -0.1934325 60.89408686 -0.2006145 62.60314751 -0.21146011 C79.42529591 -0.31390813 93.32924549 1.70638234 105.87890625 13.8125 C114.11556751 22.63622351 118.64247916 33.6456461 118.25 45.8125 C116.78018741 58.6733602 111.78301797 70.42829252 101.81640625 78.84375 C94.12658497 84.65110303 85.74815351 88.36050864 76 88 C79.88830866 93.91406307 83.89673955 99.71596214 88.0625 105.4375 C89.205762 107.01429911 90.34899018 108.59112275 91.4921875 110.16796875 C92.07194336 110.96638184 92.65169922 111.76479492 93.24902344 112.58740234 C96.06749455 116.47085627 98.87780249 120.36019579 101.6875 124.25 C102.22366943 124.99193604 102.75983887 125.73387207 103.31225586 126.49829102 C107.17515198 131.84732502 111.01845652 137.21005457 114.8425293 142.58691406 C116.44936744 144.84375197 118.06184415 147.0787355 119.7734375 149.2578125 C121 151 121 151 121 153 C92.93270542 155.51031874 92.93270542 155.51031874 85.45263672 151.70361328 C81.56167494 148.27607618 79.35214003 143.93258149 77.15722656 139.29638672 C75.21566256 135.44357004 72.614359 132.09003618 70.0625 128.625 C69.06421794 127.2094864 68.06945143 125.79148726 67.078125 124.37109375 C64.40613826 120.56686552 61.70765908 116.78262689 58.98681641 113.01318359 C57.87459196 111.46826524 56.77001647 109.91781009 55.67333984 108.36181641 C53.33764324 105.07419715 51.0606997 101.94412658 48.1796875 99.11328125 C41.34164776 91.94298567 41.32661733 85.93505023 41.4375 76.25 C41.55320968 72.16067081 41.73453375 68.08228103 42 64 C43.02883301 63.9906543 44.05766602 63.98130859 45.11767578 63.97167969 C48.95355712 63.93165231 52.78864712 63.86585946 56.62402344 63.79248047 C58.28049514 63.76434438 59.93709927 63.7430933 61.59375 63.72900391 C63.98245676 63.70747109 66.36958386 63.66077245 68.7578125 63.609375 C69.85973434 63.60753204 69.85973434 63.60753204 70.98391724 63.60565186 C76.13438331 63.46062255 78.9294614 62.05994838 83 59 C83.66 59 84.32 59 85 59 C85.28875 58.4225 85.5775 57.845 85.875 57.25 C87 55 87 55 88.04296875 53.25 C90.31221581 47.91495385 89.94503148 41.01258766 88.23046875 35.546875 C85.09910978 29.74888171 80.12108371 26.99780552 74 25 C68.27369424 24.27994095 62.60011282 24.27661642 56.8359375 24.29296875 C55.19111313 24.27983198 53.54630483 24.26452173 51.90151978 24.24714661 C47.60418074 24.20751457 43.30726581 24.19712036 39.00976562 24.19311523 C34.6118501 24.18374236 30.2141795 24.14630315 25.81640625 24.11132812 C17.21089062 24.04697432 8.60574121 24.0161512 0 24 C0 16.08 0 8.16 0 0 Z " fill="#010101" transform="translate(59,36)"/>
<path d="M0 0 C9.24 0 18.48 0 28 0 C28 37.95 28 75.9 28 115 C18.76 115 9.52 115 0 115 C0 77.05 0 39.1 0 0 Z " fill="#000000" transform="translate(59,74)"/>
</svg>
